<svg width="1780" height="1180" viewBox="0 0 1780 1180" fill="none" xmlns="http://www.w3.org/2000/svg">
<g filter="url(#filter0_d_16_1723)">
<rect x="40" y="40" width="1700" height="1100" fill="#001E30"/>
<g clip-path="url(#clip0_16_1723)">
<path d="M598.798 511.78C600.674 510.109 601.748 507.807 601.823 505.296C601.898 502.784 600.962 500.423 599.191 498.647C597.416 496.863 595.061 495.94 592.555 496C590.05 496.075 587.751 497.152 586.089 499.033L523 570.318L527.703 575.034L598.798 511.78Z" fill="#74FBE6"/>
<path d="M644.507 506.654C644.556 504.176 643.62 501.849 641.871 500.099L641.605 499.833C639.86 498.083 637.539 497.208 635.067 497.189C632.6 497.238 630.312 498.263 628.634 500.08L524.307 612.975L529.032 617.709L641.628 513.104C643.44 511.422 644.462 509.132 644.511 506.654H644.507Z" fill="#74FBE6"/>
<path d="M674.368 520.745C674.409 518.278 673.473 515.958 671.731 514.212L671.409 513.889C669.668 512.143 667.354 511.163 664.894 511.246C662.434 511.287 660.149 512.301 658.468 514.107L538.848 642.346L538.354 642.879L543.083 647.621L671.514 527.187C673.312 525.501 674.326 523.215 674.368 520.745Z" fill="#74FBE6"/>
<path d="M696.303 542.738C696.344 540.272 695.408 537.948 693.667 536.206L693.349 535.887C691.607 534.141 689.297 533.225 686.833 533.243C684.373 533.285 682.089 534.298 680.407 536.104L560.783 664.339L560.289 664.873L565.018 669.614L693.454 549.181C695.251 547.495 696.266 545.209 696.307 542.738H696.303Z" fill="#74FBE6"/>
<path d="M710.318 572.642C710.367 570.164 709.43 567.836 707.682 566.087L707.416 565.82C705.671 564.07 703.346 563.166 700.878 563.177C698.406 563.226 696.126 564.251 694.445 566.068L590.117 678.959L594.843 683.693L707.435 579.088C709.247 577.406 710.269 575.116 710.318 572.638V572.642Z" fill="#74FBE6"/>
<path d="M708.873 608.613C707.098 606.833 704.742 605.887 702.237 605.973C699.732 606.048 697.433 607.126 695.77 609.007L632.686 680.288L637.389 685.003L708.483 621.753C710.359 620.086 711.434 617.781 711.509 615.273C711.584 612.757 710.648 610.396 708.876 608.62L708.873 608.613Z" fill="#74FBE6"/>
<path d="M905.777 636.314V537.93H956.617C973.974 537.93 987.776 542.315 998.025 551.22C1008.27 560.126 1013.33 572.05 1013.33 587.12C1013.33 602.19 1008.28 614.114 998.025 623.019C987.776 631.925 973.97 636.31 956.617 636.31H905.777V636.314ZM928.192 616.993H956.621C977.531 616.993 990.378 605.621 990.378 587.12C990.378 568.618 977.392 557.246 956.483 557.246H928.192V616.99V616.993Z" fill="#74FBE6"/>
<path d="M1030.22 537.93H1125.34V557.524H1052.64V576.435H1117.56V595.755H1052.64V616.719H1125.34V636.314H1030.22V537.93Z" fill="#74FBE6"/>
<path d="M1252.04 537.93L1209.53 584.931L1256 636.317H1227.3L1195.32 600.144L1163.07 636.317H1134.92L1181.11 585.07L1138.6 537.933H1167.17L1195.6 569.996L1224.03 537.933H1252.04L1252.04 537.93Z" fill="#74FBE6"/>
<path d="M821.727 600.275H863.134C862.179 605.482 858.491 609.728 852.065 613.156C845.643 616.58 838.263 618.225 829.65 618.225C819.263 618.225 810.789 615.349 804.093 609.593C797.529 603.838 794.253 596.438 794.253 587.258C794.253 578.079 797.533 570.54 804.228 564.785C810.924 559.029 819.536 556.153 830.058 556.153C844.707 556.153 855.667 562.149 861.296 572.95L882.089 563.662C873.544 546.448 854.728 536.424 830.605 536.424C813.249 536.424 798.9 541.222 787.692 550.676C776.485 560.133 770.883 572.327 770.883 586.988C770.883 601.649 776.35 613.843 787.419 623.436C798.492 633.028 812.429 637.823 829.512 637.823C836.892 637.823 843.722 636.726 850.009 634.534C856.435 632.341 861.082 629.461 863.95 626.037V636.313H885.133V581.777H821.719V600.275H821.727Z" fill="#74FBE6"/>
</g>
</g>
<defs>
<filter id="filter0_d_16_1723" x="0" y="0" width="1780" height="1180" filterUnits="userSpaceOnUse" color-interpolation-filters="sRGB">
<feFlood flood-opacity="0" result="BackgroundImageFix"/>
<feColorMatrix in="SourceAlpha" type="matrix" values="0 0 0 0 0 0 0 0 0 0 0 0 0 0 0 0 0 0 127 0" result="hardAlpha"/>
<feOffset/>
<feGaussianBlur stdDeviation="20"/>
<feColorMatrix type="matrix" values="0 0 0 0 0 0 0 0 0 0 0 0 0 0 0 0 0 0 0.04 0"/>
<feBlend mode="normal" in2="BackgroundImageFix" result="effect1_dropShadow_16_1723"/>
<feBlend mode="normal" in="SourceGraphic" in2="effect1_dropShadow_16_1723" result="shape"/>
</filter>
<clipPath id="clip0_16_1723">
<rect width="733" height="189" fill="white" transform="translate(523 496)"/>
</clipPath>
</defs>
</svg>
